<?xml version="1.0" standalone="no"?>
<!DOCTYPE svg PUBLIC "-//W3C//DTD SVG 20010904//EN"
 "http://www.w3.org/TR/2001/REC-SVG-20010904/DTD/svg10.dtd">
<svg version="1.0" xmlns="http://www.w3.org/2000/svg"
 width="237.000000pt" height="237.000000pt" viewBox="0 0 237.000000 237.000000"
 preserveAspectRatio="xMidYMid meet">
<metadata>
Created by potrace 1.16, written by Peter Selinger 2001-2019
</metadata>
<g transform="translate(0.000000,237.000000) scale(0.100000,-0.100000)"
fill="#000000" stroke="none">
<path d="M681 2080 c-23 -17 -46 -42 -52 -57 -18 -49 17 -111 81 -143 l25 -13
-27 30 c-23 24 -28 38 -28 80 0 44 4 56 31 82 39 40 88 42 135 6 75 -57 73
-178 -6 -390 -116 -308 -112 -295 -107 -360 11 -145 149 -297 320 -354 l64
-21 11 -213 c11 -199 35 -367 62 -429 9 -19 10 -17 4 12 -9 55 -19 353 -16
490 l3 126 95 11 c77 9 110 19 178 52 137 69 232 171 251 272 8 45 -11 112
-86 301 -91 228 -109 331 -69 413 42 87 150 104 150 24 0 -34 -26 -62 -51 -56
-21 6 -25 -13 -7 -31 37 -37 118 15 118 75 0 38 -18 57 -66 73 -73 24 -182
-11 -226 -72 -20 -29 -23 -44 -22 -123 1 -99 11 -135 108 -384 79 -200 81
-212 56 -262 -46 -89 -183 -194 -300 -229 -77 -23 -130 -26 -130 -7 1 92 51
511 77 641 20 102 13 161 -31 261 -29 65 -36 74 -36 50 -1 -16 -3 -55 -5 -85
-32 -360 -47 -572 -52 -702 -5 -133 -8 -158 -21 -158 -35 0 -150 69 -204 121
-118 115 -124 175 -39 387 91 229 121 331 121 413 0 41 -6 81 -14 97 -34 65
-104 102 -194 102 -50 0 -66 -5 -101 -30z"/>
</g>
</svg>
